HIERARCHY
ROOT Hips
{
	OFFSET	0.00	0.00	0.00
	CHANNELS 6 Xposition Yposition Zposition Zrotation Xrotation Yrotation
	JOINT LeftUpLeg
	{
		OFFSET	 0.126116	-0.065224	 0.014019
		CHANNELS 3 Zrotation Xrotation Yrotation
		JOINT LeftLeg
		{
			OFFSET	 0.000000	 0.569914	 0.000000
			CHANNELS 3 Zrotation Xrotation Yrotation
			JOINT LeftFoot
			{
				OFFSET	 0.000000	 0.544423	 0.000000
				CHANNELS 3 Zrotation Xrotation Yrotation
				JOINT LeftToeBase
				{
					OFFSET	 0.000000	 0.207117	 0.000000
					CHANNELS 3 Zrotation Xrotation Yrotation
					End Site
					{
						OFFSET	 0.000000	 0.207117	 0.000000
					}
				}
			}
		}
	}
	JOINT RightUpLeg
	{
		OFFSET	-0.124023	-0.065224	 0.008373
		CHANNELS 3 Zrotation Xrotation Yrotation
		JOINT RightLeg
		{
			OFFSET	 0.000000	 0.570047	 0.000000
			CHANNELS 3 Zrotation Xrotation Yrotation
			JOINT RightFoot
			{
				OFFSET	 0.000000	 0.544354	 0.000000
				CHANNELS 3 Zrotation Xrotation Yrotation
				JOINT RightToeBase
				{
					OFFSET	 0.000000	 0.207540	 0.000000
					CHANNELS 3 Zrotation Xrotation Yrotation
					End Site
					{
						OFFSET	 0.000000	 0.207540	 0.000000
					}
				}
			}
		}
	}
	JOINT Spine
	{
		OFFSET	 0.000184	 0.117403	 0.007763
		CHANNELS 3 Zrotation Xrotation Yrotation
		JOINT Spine1
		{
			OFFSET	 0.000000	 0.137269	 0.000000
			CHANNELS 3 Zrotation Xrotation Yrotation
			JOINT Spine2
			{
				OFFSET	 0.000000	 0.156879	 0.000000
				CHANNELS 3 Zrotation Xrotation Yrotation
				JOINT LeftShoulder
				{
					OFFSET	 0.080501	 0.160143	 0.002496
					CHANNELS 3 Zrotation Xrotation Yrotation
					JOINT LeftArm
					{
						OFFSET	 0.000000	 0.164363	 0.000000
						CHANNELS 3 Zrotation Xrotation Yrotation
						JOINT LeftForeArm
						{
							OFFSET	 0.000000	 0.364576	 0.000000
							CHANNELS 3 Zrotation Xrotation Yrotation
							JOINT LeftHand
							{
								OFFSET	 0.000000	 0.360812	 0.000000
								CHANNELS 3 Zrotation Xrotation Yrotation
								JOINT LeftHandIndex1
								{
									OFFSET	 0.000000	 0.086006	 0.000000
									CHANNELS 3 Zrotation Xrotation Yrotation
									JOINT LeftHandIndex2
									{
										OFFSET	 0.000000	 0.047237	 0.000000
										CHANNELS 3 Zrotation Xrotation Yrotation
										JOINT LeftHandIndex3
										{
											OFFSET	-0.004284	 0.038165	 0.000551
											CHANNELS 3 Zrotation Xrotation Yrotation
											End Site
											{
												OFFSET	-0.004284	 0.038165	 0.000551
											}
										}
									}
								}
							}
						}
					}
				}
				JOINT Neck
				{
					OFFSET	 0.000000	 0.176489	 0.000000
					CHANNELS 3 Zrotation Xrotation Yrotation
					JOINT Head
					{
						OFFSET	 0.000000	 0.077941	 0.001747
						CHANNELS 3 Zrotation Xrotation Yrotation
						End Site
						{
							OFFSET	 0.000000	 0.077941	 0.001747
						}
					}
				}
				JOINT RightShoulder
				{
					OFFSET	-0.080363	 0.159706	-0.000306
					CHANNELS 3 Zrotation Xrotation Yrotation
					JOINT RightArm
					{
						OFFSET	 0.000000	 0.164196	 0.000000
						CHANNELS 3 Zrotation Xrotation Yrotation
						JOINT RightForeArm
						{
							OFFSET	 0.000000	 0.365611	 0.000000
							CHANNELS 3 Zrotation Xrotation Yrotation
							JOINT RightHand
							{
								OFFSET	 0.000000	 0.360648	 0.000000
								CHANNELS 3 Zrotation Xrotation Yrotation
								JOINT RightHandIndex1
								{
									OFFSET	 0.000000	 0.069977	 0.000000
									CHANNELS 3 Zrotation Xrotation Yrotation
									JOINT RightHandIndex2
									{
										OFFSET	 0.000000	 0.052305	 0.000000
										CHANNELS 3 Zrotation Xrotation Yrotation
										JOINT RightHandIndex3
										{
											OFFSET	 0.009002	 0.042196	 0.000782
											CHANNELS 3 Zrotation Xrotation Yrotation
											End Site
											{
												OFFSET	 0.009002	 0.042196	 0.000782
											}
										}
									}
								}
							}
						}
					}
				}
			}
		}
	}
}
MOTION
Frames:    12
Frame Time: 0.03333334
-0.002144	 1.283720	-0.015105	 0.405274	 1.963813	 178.381200	 175.490800	 4.191726	 14.659250	 3.596495	-17.627160	 3.756067	-0.495208	 69.234450	 3.735056	 1.331492	 28.938720	-2.729976	-175.176100	 4.138592	-12.324120	-5.096759	-16.334940	-6.787324	-1.120330	 67.608120	-0.114178	-1.312422	 28.670620	 2.325061	-1.070489	 3.472185	 1.766284	-0.781792	 1.169826	 0.331262	-0.788213	-0.062582	-3.787480	-113.435100	 5.370734	 92.933780	 0.396044	 48.365490	 42.156380	 29.682530	-1.467810	 0.305102	-17.454330	-12.534630	-8.402132	-6.580301	 5.266122	 0.000000	 0.000000	 0.000000	 0.000000	 0.000000	 0.000000	 0.000000	 4.844244	-0.506683	 0.223702	 1.615060	 2.433754	 1.811792	 114.271800	-4.786574	-88.134730	-62.977440	 5.683223	 51.692860	-79.560550	-2.215802	-1.786345	-23.962120	-30.350320	-28.956440	-0.359481	 10.574630	 0.744479	 11.977670	 9.309666	-2.094412	-8.359058	 3.146429	 0.104503
 0.000419	 1.284130	-0.012278	 0.314767	 2.010005	 177.745000	 175.657800	 4.083901	 14.107910	 3.535795	-17.348030	 2.886503	-2.848417	 68.968270	 6.152266	 1.331492	 28.938720	-2.729976	-175.026800	 4.305058	-13.010630	-5.130486	-16.436970	-7.504553	-2.700618	 67.464970	 1.687489	-1.308725	 28.621250	 2.411421	-1.051252	 3.477161	 0.494105	-0.798140	 1.559007	-0.213224	-0.807985	-0.382459	-1.521392	-113.435300	 5.425916	 92.959590	-1.559138	 48.510080	 43.378860	 29.074060	-1.440465	 0.289684	-21.155170	-15.530090	-13.385920	-6.580301	 5.266122	 0.000000	 0.000000	 0.000000	 0.000000	 0.000000	 0.000000	 0.000000	 5.016567	-0.492174	 0.252418	 1.675928	 2.478225	 2.460176	 114.286000	-4.875169	-88.064550	-62.817670	 9.547761	 45.714280	-90.050060	-2.253016	-2.196447	-21.712770	-18.998040	-27.170090	-0.372638	 10.952220	 0.746944	 11.982780	 9.679187	-2.173911	-8.363032	 3.350163	 0.091444
 0.004654	 1.284463	-0.009400	 0.290280	 2.131879	 178.250900	 175.796200	 4.114783	 14.606670	 3.536041	-17.349160	 3.166338	-2.449019	 68.804600	 5.462578	 1.331492	 28.938720	-2.729976	-174.930700	 4.290809	-12.549360	-5.099764	-16.344070	-7.492270	-2.777675	 67.328580	 1.684511	-1.304116	 28.561390	 2.521687	-0.995980	 3.484357	-0.848933	-0.759823	 2.150496	-0.869014	-1.011254	-0.857695	 0.619603	-113.436800	 5.463644	 92.995800	-2.525556	 49.471870	 43.276890	 28.683680	-1.422773	 0.279899	-22.655400	-21.247160	-18.916880	-6.580301	 5.266122	 0.000000	 0.000000	 0.000000	 0.000000	 0.000000	 0.000000	 0.000000	 5.142372	-0.423774	 0.050548	 2.849283	 2.193902	 2.539577	 114.279100	-4.826044	-88.089570	-58.446270	 13.449560	 28.604740	-102.834400	-2.196847	-2.694942	-22.643510	-20.681960	-24.111680	-0.439156	 12.846690	 0.760672	 12.016410	 11.532940	-2.574759	-8.382295	 4.372638	 0.026136
 0.009907	 1.284681	-0.006249	 0.226993	 2.273882	 178.806200	 175.909500	 4.184046	 15.155490	 3.544041	-17.385940	 3.473304	-2.047925	 68.618630	 4.728380	 1.331492	 28.938720	-2.729976	-174.832200	 4.335846	-12.047030	-5.098611	-16.340550	-7.486030	-2.845220	 67.203860	 1.676884	-1.298965	 28.496370	 2.641389	-0.911374	 3.432927	-2.112738	-1.063492	 3.006582	-1.369238	-1.042379	-1.616707	 2.988653	-113.438500	 5.504616	 93.035130	-2.885759	 50.923960	 42.671280	 28.466360	-1.412877	 0.274563	-26.471500	-28.205730	-25.486780	-6.580301	 5.266122	 0.000000	 0.000000	 0.000000	 0.000000	 0.000000	 0.000000	 0.000000	 5.279287	-0.349982	-0.168883	 4.118442	 1.838472	 2.652394	 114.271600	-4.772676	-88.116710	-57.354290	 17.471970	 6.966954	-109.753800	-2.120634	-2.955857	-31.458170	-23.567710	-28.431220	-0.512572	 14.904790	 0.778292	 12.068330	 13.546500	-3.014790	-8.401927	 5.483303	-0.044525
 0.013731	 1.284773	-0.003619	 0.134425	 2.401839	 179.313700	 175.931200	 4.285670	 15.664950	 3.551988	-17.422550	 3.773289	-1.601725	 68.412480	 4.001454	 1.331492	 28.938720	-2.729976	-174.767600	 4.421310	-11.570460	-5.140490	-16.467170	-7.474227	-2.854370	 67.181140	 1.633077	-1.294588	 28.442690	 2.742581	-0.882852	 3.384312	-3.254048	-1.282820	 3.798115	-1.869853	-1.060804	-2.382972	 4.988781	-113.439900	 5.525968	 93.062940	-2.858058	 51.938510	 41.914840	 28.546800	-1.416601	 0.276549	-31.649850	-34.058410	-32.356020	-6.580301	 5.266122	 0.000000	 0.000000	 0.000000	 0.000000	 0.000000	 0.000000	 0.000000	 5.367593	-0.288016	-0.355451	 5.135786	 1.492546	 2.757457	 114.264500	-4.721921	-88.143460	-56.078310	 20.199520	-9.305148	-109.275200	-2.126878	-2.938054	-42.630610	-23.997000	-30.120950	-0.580134	 16.764760	 0.796737	 12.129460	 15.365860	-3.417527	-8.418356	 6.476925	-0.107536
 0.016252	 1.284766	-0.001197	-0.055435	 2.471336	 179.886700	 175.796100	 4.463839	 16.326240	 3.536957	-17.353330	 4.335914	-0.476247	 68.155390	 2.557626	 1.331492	 28.938720	-2.729976	-174.796800	 4.676918	-10.845520	-5.265230	-16.843370	-7.318391	-2.512984	 67.352970	 1.195614	-1.293426	 28.429830	 2.792848	-0.886915	 3.404573	-4.380874	-1.487502	 4.340657	-2.391581	-1.098579	-2.881308	 6.745029	-113.440500	 5.395702	 93.019100	-1.630445	 52.354050	 41.318780	 29.176330	-1.445039	 0.292251	-39.574810	-39.150260	-40.320290	-6.580301	 5.266122	 0.000000	 0.000000	 0.000000	 0.000000	 0.000000	 0.000000	 0.000000	 5.118022	-0.257469	-0.456949	 5.104215	 1.196329	 2.956697	 114.252100	-4.637224	-88.196930	-47.011140	 28.645970	-17.154280	-106.323100	-2.162318	-2.827575	-35.258690	-22.630330	-23.008190	-0.661554	 18.958920	 0.821711	 12.219550	 17.511550	-3.900130	-8.434845	 7.545622	-0.175136
 0.018203	 1.284694	 0.001079	-0.259529	 2.541171	-179.541200	 175.615800	 4.670640	 16.985880	 3.521997	-17.284400	 4.896958	 0.632904	 67.849560	 1.144793	 1.331492	 28.938720	-2.729976	-174.839300	 4.953363	-10.124260	-5.413115	-17.287260	-7.173236	-2.157782	 67.568110	 0.761734	-1.292261	 28.417080	 2.842675	-0.862261	 3.439704	-5.393034	-1.756091	 4.803810	-2.865605	-1.090665	-3.245363	 8.281826	-113.441300	 5.266572	 92.975670	 0.298723	 52.697420	 40.082730	 29.885940	-1.476963	 0.310355	-48.661780	-42.764700	-48.570150	-6.580301	 5.266122	 0.000000	 0.000000	 0.000000	 0.000000	 0.000000	 0.000000	 0.000000	 4.870651	-0.226749	-0.557441	 5.069670	 0.893715	 3.102778	 114.239800	-4.553266	-88.249920	-34.680570	 33.093070	-24.506070	-100.164900	-2.217744	-2.592065	-30.527950	-19.547330	-14.444830	-0.744455	 21.135160	 0.850130	 12.328970	 19.638950	-4.388372	-8.449975	 8.605257	-0.242032
 0.019618	 1.284632	 0.003214	-0.451817	 2.606287	-178.993400	 175.429600	 4.833706	 17.613990	 3.505329	-17.207530	 5.436718	 1.706805	 67.562790	-0.195748	 1.331492	 28.938720	-2.729976	-174.905600	 5.226454	-9.435086	-5.567080	-17.747110	-7.040084	-1.771669	 67.806430	 0.333907	-1.291133	 28.404860	 2.890399	-0.839766	 3.500431	-6.393984	-1.973593	 5.063562	-3.419495	-1.089722	-3.422933	 9.538292	-113.442000	 5.142855	 92.934030	 2.045597	 52.888230	 38.969800	 30.265140	-1.493908	 0.320202	-57.377220	-44.857070	-56.685340	-6.580301	 5.266122	 0.000000	 0.000000	 0.000000	 0.000000	 0.000000	 0.000000	 0.000000	 4.633753	-0.196916	-0.653575	 5.033310	 0.602421	 3.187793	 114.228200	-4.472850	-88.300640	-25.202960	 35.413630	-29.887180	-91.633270	-2.252144	-2.258714	-25.300200	-14.752330	-7.438468	-0.826156	 23.219170	 0.880971	 12.453480	 21.675310	-4.866470	-8.463337	 9.620209	-0.306026
 0.020771	 1.284615	 0.005188	-0.506344	 2.757421	-179.219000	 175.439300	 4.834945	 17.403330	 3.518988	-17.270520	 5.419958	 1.558587	 67.442860	-0.101793	 1.331492	 28.938720	-2.729976	-174.803500	 5.365527	-9.636816	-5.681258	-18.086470	-7.484434	-2.870911	 67.876930	 1.462239	-1.291277	 28.408070	 2.916440	-0.814938	 3.577880	-7.208146	-2.137017	 5.192827	-3.833283	-1.028002	-3.445452	 10.654490	-113.443200	 5.082676	 92.925050	 2.931497	 52.801290	 38.778140	 30.208870	-1.491421	 0.318645	-64.232860	-45.118570	-62.470890	-6.580301	 5.266122	 0.000000	 0.000000	 0.000000	 0.000000	 0.000000	 0.000000	 0.000000	 4.404446	-0.169119	-0.715194	 4.936534	 0.495593	 3.359217	 114.219200	-4.411198	-88.340530	-19.155870	 37.008980	-34.966020	-82.861400	-2.235578	-1.914611	-22.260360	-15.536450	-7.071512	-0.827076	 23.242290	 0.881333	 12.454980	 21.697900	-4.871833	-8.463619	 9.642355	-0.307425
 0.021547	 1.284567	 0.007062	-0.455904	 2.967619	-179.997000	 175.580700	 4.737519	 16.594990	 3.563672	-17.476270	 5.009972	 0.563690	 67.466670	 0.993671	 1.331492	 28.938720	-2.729976	-174.564700	 5.442203	-10.477620	-5.789771	-18.407770	-8.333032	-4.979232	 67.839270	 3.662304	-1.292333	 28.422240	 2.926830	-0.787690	 3.664614	-7.945421	-2.272478	 5.204740	-4.219722	-0.918844	-3.345986	 11.620070	-113.444600	 5.068190	 92.939350	 3.107365	 52.390710	 39.299490	 29.831350	-1.474554	 0.308963	-68.554040	-44.076870	-65.693840	-6.580301	 5.266122	 0.000000	 0.000000	 0.000000	 0.000000	 0.000000	 0.000000	 0.000000	 4.182331	-0.143079	-0.751722	 4.799518	 0.523101	 3.580237	 114.212300	-4.363485	-88.372310	-14.984210	 37.866930	-39.772740	-73.301480	-2.158108	-1.547279	-22.847570	-21.059410	-10.279330	-0.770149	 21.797230	 0.859530	 12.366390	 20.285990	-4.539048	-8.454738	 8.956981	-0.264225
 0.021970	 1.284585	 0.008787	-0.398110	 3.166835	 179.260200	 175.714500	 4.607143	 15.820850	 3.602457	-17.654520	 4.619968	-0.347886	 67.496430	 2.023911	 1.331492	 28.938720	-2.729976	-174.353300	 5.491822	-11.279730	-5.888057	-18.697670	-9.129410	-6.932397	 67.785740	 5.716109	-1.293342	 28.435760	 2.936741	-0.760637	 3.757541	-8.648795	-2.339624	 5.114436	-4.644168	-0.844127	-3.167251	 12.372950	-113.445900	 5.054384	 92.952970	 2.931165	 51.909660	 40.094160	 29.421790	-1.456101	 0.298403	-70.866550	-42.637810	-67.498260	-6.580301	 5.266122	 0.000000	 0.000000	 0.000000	 0.000000	 0.000000	 0.000000	 0.000000	 3.970532	-0.118115	-0.786461	 4.669123	 0.554935	 3.747854	 114.205700	-4.317952	-88.402670	-12.688790	 39.263550	-43.424310	-62.350860	-1.996020	-1.149179	-24.312110	-26.805490	-14.020950	-0.716918	 20.419020	 0.840360	 12.290710	 18.938990	-4.226524	-8.445798	 8.303380	-0.223000
 0.022223	 1.284796	 0.010306	-0.331600	 3.360946	 178.529300	 175.857400	 4.435368	 15.057090	 3.622256	-17.745350	 4.232775	-1.211263	 67.476960	 3.024759	 1.331492	 28.938720	-2.729976	-174.175200	 5.452352	-12.063560	-5.939274	-18.848350	-9.887540	-8.814797	 67.662510	 7.680393	-1.294338	 28.449050	 2.946489	-0.732403	 3.857348	-9.167187	-2.294372	 5.005375	-4.941363	-0.828033	-2.959688	 12.963870	-113.447300	 5.040805	 92.966390	 2.735345	 51.556910	 40.914300	 29.193420	-1.445809	 0.292691	-71.639260	-41.181610	-67.899710	-6.580301	 5.266122	 0.000000	 0.000000	 0.000000	 0.000000	 0.000000	 0.000000	 0.000000	 3.762236	-0.093437	-0.820538	 4.540945	 0.592644	 3.874083	 114.199300	-4.273193	-88.432470	-12.397590	 42.024440	-45.841640	-49.044350	-1.701992	-0.717928	-26.663230	-33.250270	-18.151730	-0.665495	 19.063760	 0.822991	 12.224370	 17.614080	-3.923388	-8.436557	 7.660580	-0.182420
